<?xml version="1.0" encoding="UTF-8"?>
<svg width="24px" height="24px" viewBox="0 0 16 24" version="1.1" xmlns="http://www.w3.org/2000/svg" xmlns:xlink="http://www.w3.org/1999/xlink">
    <title>ic_sound_01</title>
    <defs>
        <path d="M8.09643434,0.55827676 C8.75769451,0.0592512257 9.69829192,0.190768386 10.1973175,0.852028559 C10.3937418,1.11231103 10.5,1.42951219 10.5,1.75559422 L10.5,1.75559422 L10.5,12.2444058 C10.5,13.0728329 9.82842712,13.7444058 9,13.7444058 C8.67391797,13.7444058 8.35671681,13.6381476 8.09643396,13.441723 L8.09643396,13.441723 L4.197,10.499 L1.75,10.5 C0.831826603,10.5 0.0788076603,9.79288973 0.00580119953,8.89352721 L0.00580119953,8.89352721 L0,8.75 L0,5.25 C0,4.28350169 0.783501688,3.5 1.74987545,3.50000001 L1.74987545,3.50000001 L4.197,3.499 Z M13.819861,3.93688482 C14.6153972,4.75282559 15.069589,5.84644372 15.069589,7.00913281 C15.069589,8.18629027 14.6039864,9.29233074 13.7908349,10.1108741 C13.4016032,10.5026868 12.7684416,10.504779 12.376629,10.1155473 C11.9848164,9.72631564 11.9827241,9.09315411 12.3719558,8.70134149 C12.8165705,8.25377869 13.069589,7.65273234 13.069589,7.00913281 C13.069589,6.37341505 12.822794,5.77917393 12.3878554,5.3330796 C12.0023069,4.93764217 12.0103234,4.30452794 12.4057608,3.9189794 C12.8011983,3.53343085 13.4343125,3.54144739 13.819861,3.93688482 Z" id="path-1"></path>
    </defs>
    <g id="页面-1" stroke="none" stroke-width="1" fill="none" fill-rule="evenodd">
        <g id="画板" transform="translate(-204.000000, -283.000000)">
            <g id="ic/music/ic_music_filled备份" transform="translate(204.000000, 288.000000)">
                <mask id="mask-2" fill="white">
                    <use xlink:href="#path-1"></use>
                </mask>
                <use id="合并形状" fill="#000000" xlink:href="#path-1"></use>
            </g>
        </g>
    </g>
</svg>