<?xml version="1.0" encoding="UTF-8"?>
<svg width="24px" height="24px" viewBox="0 0 24 24" version="1.1" xmlns="http://www.w3.org/2000/svg" xmlns:xlink="http://www.w3.org/1999/xlink">
    <title>ic_sound_04</title>
    <g id="页面-1" stroke="none" stroke-width="1" fill="none" fill-rule="evenodd">
        <g id="画板" transform="translate(-237.000000, -281.000000)" fill="#000000">
            <path d="M247.600534,287.720534 L248.080534,287.720534 L254.123734,283.088534 C254.341226,282.922556 254.633996,282.894185 254.87931,283.015315 C255.124624,283.136445 255.28009,283.386144 255.280534,283.659734 L255.280534,295.400534 L247.600534,287.720534 Z M255.280534,299.638934 L255.280534,301.381334 C255.28009,301.654924 255.124624,301.904623 254.87931,302.025753 C254.633996,302.146883 254.341226,302.118512 254.123734,301.952534 L248.080534,297.320534 L243.760534,297.320534 C242.700147,297.320534 241.840534,296.460921 241.840534,295.400534 L241.840534,289.640534 C241.840097,288.719541 242.493696,287.927971 243.398134,287.754134 L239.241334,283.599734 C238.866222,283.224622 238.866222,282.616446 239.241334,282.241334 C239.616446,281.866222 240.224622,281.866222 240.599734,282.241334 L246.496534,288.138134 L246.496534,288.138134 L254.800534,296.437334 L254.800534,296.437334 L259.799734,301.441334 C260.042389,301.683989 260.137156,302.037666 260.048338,302.369138 C259.95952,302.700611 259.700611,302.95952 259.369138,303.048338 C259.037666,303.137156 258.683989,303.042389 258.441334,302.799734 L255.280534,299.638934 Z" id="形状"></path>
        </g>
    </g>
</svg>