<?xml version="1.0" encoding="UTF-8"?>
<svg width="50" height="50" viewBox="0 0 61 65" version="1.1" xmlns="http://www.w3.org/2000/svg" xmlns:xlink="http://www.w3.org/1999/xlink">
    <title>ic_status_bt</title>
    <g id="状态栏" stroke="none" stroke-width="1" fill="none" fill-rule="evenodd">
        <g id="图标交付" transform="translate(-204.000000, -374.000000)" fill="#FFFFFF" fill-rule="nonzero">
            <g id="路径-7" transform="translate(204.999813, 374.957656)">
                <path d="M25.9749081,6.03433231 C27.5661799,3.87474915 30.5654373,3.36550246 32.7734657,4.83980655 L32.9661824,4.97504831 L46.6035028,15.0236002 C47.0025446,15.3176309 47.3556471,15.6693636 47.6512269,16.0672593 C49.2508815,18.2206405 48.860527,21.2376756 46.8048265,22.9178713 L46.6191276,23.0625986 L34.5301873,32.0423436 L46.6191276,41.0220885 C46.9374443,41.2585523 47.2262165,41.5318307 47.4795364,41.8359929 L47.6627868,42.0698126 C49.2540586,44.2293957 48.8519792,47.2448906 46.7897629,48.9170826 L46.6035028,49.0610869 L32.9661824,59.1096388 C32.1068979,59.7427958 31.0675474,60.0843596 30.0001873,60.0843596 C27.3114326,60.0843596 25.1183691,57.9620529 25.0048068,55.3012492 L25.0001873,55.0843596 L24.9991873,39.1223436 L13.7891593,47.4505751 C12.5102847,48.4005962 10.7237155,48.1808005 9.70983102,46.9800963 L9.59195571,46.8313156 C8.6419346,45.552441 8.86173033,43.7658718 10.0624345,42.7519873 L10.2112153,42.634112 L24.4681873,32.0423436 L10.2112153,21.4505751 C8.93234068,20.500554 8.62681819,18.726633 9.48355621,17.4091915 L9.59195571,17.2533716 C10.5419768,15.974497 12.3158978,15.6689745 13.6333393,16.5257125 L13.7891593,16.634112 L24.9991873,24.9613436 L25.0001873,9.0003275 C25.0001873,8.02191404 25.2871957,7.06703641 25.8227226,6.25281681 L25.9749081,6.03433231 Z M30.9991873,36.8933436 L30.9991873,53.1043436 L41.9551873,45.0323436 L30.9991873,36.8933436 Z M30.9991873,10.9793436 L30.9991873,27.1903436 L41.9551873,19.0513436 L30.9991873,10.9793436 Z" id="路径-6"></path>
            </g>
        </g>
    </g>
</svg>