<?xml version="1.0" encoding="UTF-8"?>
<svg width="60px" height="64px" viewBox="0 0 60 64" version="1.1" xmlns="http://www.w3.org/2000/svg" xmlns:xlink="http://www.w3.org/1999/xlink">
    <title>ic_status_bt_connecting</title>
    <g id="状态栏" stroke="none" stroke-width="1" fill="none" fill-rule="evenodd">
        <g id="图标交付" transform="translate(-389.000000, -375.000000)" fill="#FFFFFF" fill-rule="nonzero">
            <g id="编组-8" transform="translate(389.000000, 375.000000)">
                <path d="M32.7732785,4.797463 L32.9659952,4.93270475 L46.6033156,14.9812566 C47.0023573,15.2752874 47.3554599,15.62702 47.6510396,16.0249158 C49.2506942,18.178297 48.8603398,21.195332 46.8046393,22.8755278 L46.6189404,23.020255 L34.53,32 L46.6189404,40.979745 C46.937257,41.2162087 47.2260292,41.4894871 47.4793492,41.7936493 L47.6625996,42.027469 C49.2538714,44.1870522 48.851792,47.202547 46.7895757,48.8747391 L46.6033156,49.0187434 L32.9659952,59.0672952 C32.1067107,59.7004522 31.0673601,60.0420161 30,60.0420161 C27.3112453,60.0420161 25.1181819,57.9197093 25.0046195,55.2589057 L25,55.0420161 L24.999,39.08 L13.788972,47.4082315 C12.5100974,48.3582527 10.7235283,48.1384569 9.70964376,46.9377528 L9.59176846,46.788972 C8.64174734,45.5100974 8.86154307,43.7235283 10.0622472,42.7096438 L10.211028,42.5917685 L24.468,32 L10.211028,21.4082315 C8.93215342,20.4582104 8.62663094,18.6842895 9.48336895,17.3668479 L9.59176846,17.211028 C10.5417896,15.9321534 12.3157105,15.6266309 13.6331521,16.483369 L13.788972,16.5917685 L24.999,24.919 L25,8.95798394 C25,7.97957049 25.2870085,7.02469286 25.8225353,6.21047326 L25.9747208,5.99198875 C27.5659926,3.83240559 30.56525,3.3231589 32.7732785,4.797463 Z M30.999,36.851 L30.999,53.062 L41.955,44.99 L30.999,36.851 Z M6.15223015,27.0247519 C6.44492746,26.5564072 7.06187388,26.4140169 7.53021855,26.7067142 L7.53021855,26.7067142 L14.6430759,31.1519749 C14.7718668,31.2324643 14.8806326,31.3412314 14.9611203,31.4700234 C15.2538117,31.9383718 15.1114135,32.5553164 14.643065,32.8480078 L14.643065,32.8480078 L7.53000555,37.2932685 C7.37107506,37.3925911 7.18743194,37.4452529 7.00001829,37.4452487 C6.44773354,37.4452361 6.00002847,36.9975107 6.00004103,36.4452259 L6.00004103,36.4452259 L6.00024319,27.5547045 C6.00024746,27.3673019 6.05291143,27.1836716 6.15223015,27.0247519 Z M52.8477699,27.0247519 C52.9470886,27.1836716 52.9997525,27.3673019 52.9997568,27.5547045 L52.999959,36.4452259 C52.9999715,36.9975107 52.5522665,37.4452361 51.9999817,37.4452487 C51.8125681,37.4452529 51.6289249,37.3925911 51.4699945,37.2932685 L44.356935,32.8480078 C43.8885865,32.5553164 43.7461883,31.9383718 44.0388797,31.4700234 C44.1193674,31.3412314 44.2281332,31.2324643 44.3569241,31.1519749 L51.4697815,26.7067142 C51.9381261,26.4140169 52.5550725,26.5564072 52.8477699,27.0247519 Z M30.999,10.937 L30.999,27.148 L41.955,19.009 L30.999,10.937 Z" id="形状结合"></path>
            </g>
        </g>
    </g>
</svg>