<?xml version="1.0" encoding="UTF-8"?>
<svg width="60px" height="64px" viewBox="0 0 60 64" version="1.1" xmlns="http://www.w3.org/2000/svg" xmlns:xlink="http://www.w3.org/1999/xlink">
    <title>ic_status_bt_close</title>
    <g id="状态栏" stroke="none" stroke-width="1" fill="none" fill-rule="evenodd">
        <g id="图标交付" transform="translate(-297.000000, -375.000000)" fill="#FFFFFF" fill-rule="nonzero">
            <g id="编组-7" transform="translate(297.000000, 375.000000)">
                <path d="M9.17380192,6.81192283 L24.9994816,22.6376564 L24.9984816,22.6366564 L50.893102,48.5312229 C50.8966818,48.5348027 50.9002684,48.5383716 50.9038618,48.5419295 L55.8428495,53.4809704 C57.0144224,54.6525433 57.0144224,56.5520382 55.8428495,57.7236111 C54.6712766,58.895184 52.7717817,58.895184 51.6002088,57.7236111 L44.4684816,50.5916564 L32.9659952,59.0672952 C32.1067107,59.7004522 31.0673601,60.0420161 30,60.0420161 C27.3112453,60.0420161 25.1181819,57.9197093 25.0046195,55.2589057 L25,55.0420161 L25,39.079 L13.788972,47.4082315 C12.5100974,48.3582527 10.7235283,48.1384569 9.70964376,46.9377528 L9.59176846,46.788972 C8.64174734,45.5100974 8.86154307,43.7235283 10.0622472,42.7096438 L10.211028,42.5917685 L25,31.605 L24.9994816,31.1226564 L4.93116124,11.0545635 C3.75958836,9.88299064 3.75958836,7.98349571 4.93116124,6.81192283 C6.10273411,5.64034995 8.00222905,5.64034995 9.17380192,6.81192283 Z M30.9994816,37.1226564 L31,53.062 L40.1764816,46.2996564 L30.9994816,37.1226564 Z M32.7732785,4.797463 L32.9659952,4.93270475 L46.6033156,14.9812566 C47.0023573,15.2752874 47.3554599,15.62702 47.6510396,16.0249158 C49.2506942,18.178297 48.8603398,21.195332 46.8046393,22.8755278 L46.6189404,23.020255 L39.3024816,28.4546564 L35.0134816,24.1656564 L41.955,19.009 L31,10.937 L30.9994816,20.1516564 L24.9994816,14.1516564 L25,8.95798394 C25,7.97957049 25.2870085,7.02469286 25.8225353,6.21047326 L25.9747208,5.99198875 C27.5659926,3.83240559 30.56525,3.3231589 32.7732785,4.797463 Z" id="形状结合"></path>
            </g>
        </g>
    </g>
</svg>